<?xml version="1.0" encoding="iso-8859-1"?>
<!-- Generator: Adobe Illustrator 19.0.0, SVG Export Plug-In . SVG Version: 6.00 Build 0)  -->
<svg version="1.1" id="Capa_1" xmlns="http://www.w3.org/2000/svg" xmlns:xlink="http://www.w3.org/1999/xlink" x="0px" y="0px"
	 viewBox="0 0 508 508" style="enable-background:new 0 0 508 508;" xml:space="preserve">
<rect y="479.8" style="fill:#CDD5DF;" width="508" height="28.2"/>
<rect x="31" y="162" style="fill:#FFD05C;" width="445.9" height="317.8"/>
<rect x="62.8" style="fill:#89D6F7;" width="382.5" height="90.4"/>
<path style="fill:#F6B44B;" d="M476.9,177.1V239c-1.5,0.2-3.2,0.3-4.7,0.3h-1c-19.8,0-35.8-16.1-35.8-35.8
	c0,19.8-16.1,35.8-35.8,35.8h-0.9c-19.8,0-35.8-16.1-35.8-35.8c0,19.8-16,35.8-35.8,35.8h-0.9c-19.8,0-35.8-16.1-35.8-35.8
	c0,19.8-16,35.8-35.8,35.8h-0.9c-19.8,0-35.8-16.1-35.8-35.8c0,19.8-16.1,35.8-35.8,35.8H181c-19.8,0-35.8-16.1-35.8-35.8
	c0,19.8-16,35.8-35.8,35.8h-0.9c-19.8,0-35.8-16.1-35.8-35.8c0,19.8-16,35.8-35.8,35.8H36c-1.6,0-3.2-0.1-4.8-0.3v-61.9H476.9z"/>
<polygon style="fill:#F2F2F2;" points="94.8,74.8 31.1,74.8 0,162 72.6,162 "/>
<polygon style="fill:#F2705B;" points="158.5,74.8 94.8,74.8 72.6,162 145.1,162 "/>
<polygon style="fill:#F2F2F2;" points="222.2,74.8 158.5,74.8 145.1,162 217.7,162 "/>
<polygon style="fill:#F2705B;" points="285.8,74.8 222.2,74.8 217.7,162 290.3,162 "/>
<g>
	<polygon style="fill:#F2F2F2;" points="349.5,74.8 285.8,74.8 290.3,162 362.9,162 	"/>
	<polygon style="fill:#F2F2F2;" points="476.9,74.8 413.2,74.8 435.4,162 508,162 	"/>
</g>
<polygon style="fill:#F2705B;" points="413.2,74.8 349.5,74.8 362.9,162 435.4,162 "/>
<path style="fill:#41596B;" d="M254,267.6c-38.2,0-69.1,30.9-69.1,69.1v143.1h138.3V336.7C323.1,298.6,292.2,267.6,254,267.6z"/>
<g>
	<rect x="341" y="336.1" style="fill:#FFFFFF;" width="118.3" height="93.3"/>
	<rect x="48.8" y="336.1" style="fill:#FFFFFF;" width="118.3" height="93.3"/>
</g>
<g>
	<rect x="352.3" y="347.4" style="fill:#89D6F7;" width="95.7" height="70.8"/>
	<rect x="60.1" y="347.4" style="fill:#89D6F7;" width="95.7" height="70.8"/>
</g>
<circle style="fill:#FFFFFF;" cx="308.4" cy="379.8" r="8.5"/>
<g>
	<path style="fill:#CDD5DF;" d="M0,187.9c0,20,16.2,36.3,36.3,36.3c20,0,36.3-16.2,36.3-36.3v-26H0V187.9z"/>
	<path style="fill:#CDD5DF;" d="M145.1,187.9c0,20,16.2,36.3,36.3,36.3c20,0,36.3-16.2,36.3-36.3v-26h-72.6V187.9z"/>
	<path style="fill:#CDD5DF;" d="M290.3,187.9c0,20,16.2,36.3,36.3,36.3c20,0,36.3-16.2,36.3-36.3v-26h-72.6L290.3,187.9L290.3,187.9
		z"/>
	<path style="fill:#CDD5DF;" d="M435.4,162v26c0,20,16.2,36.3,36.3,36.3c20,0,36.3-16.2,36.3-36.3v-26H435.4z"/>
</g>
<g>
	<path style="fill:#F05540;" d="M72.6,187.9c0,20,16.2,36.3,36.3,36.3l0,0c20,0,36.3-16.2,36.3-36.3v-26H72.6V187.9z"/>
	<path style="fill:#F05540;" d="M217.7,187.9c0,20,16.2,36.3,36.3,36.3c20,0,36.3-16.2,36.3-36.3v-26h-72.6L217.7,187.9L217.7,187.9
		z"/>
	<path style="fill:#F05540;" d="M362.9,162v26c0,20,16.2,36.3,36.3,36.3c20,0,36.3-16.2,36.3-36.3v-26H362.9z"/>
</g>
<g>
</g>
<g>
</g>
<g>
</g>
<g>
</g>
<g>
</g>
<g>
</g>
<g>
</g>
<g>
</g>
<g>
</g>
<g>
</g>
<g>
</g>
<g>
</g>
<g>
</g>
<g>
</g>
<g>
</g>
</svg>
